solid OpenSCAD_Model
  facet normal -0 0 1
    outer loop
      vertex -0.0546875 0.0546875 0.301292
      vertex 0.0546875 -0.0546875 0.301292
      vertex 0.0546875 0.0546875 0.301292
    endloop
  endfacet
  facet normal 0 0 1
    outer loop
      vertex 0.0546875 -0.0546875 0.301292
      vertex -0.0546875 0.0546875 0.301292
      vertex -0.0546875 -0.0546875 0.301292
    endloop
  endfacet
  facet normal -1 0 0
    outer loop
      vertex -0.0546875 -0.0546875 0.285667
      vertex -0.0546875 0.0546875 0.301292
      vertex -0.0546875 0.0546875 0.285667
    endloop
  endfacet
  facet normal -1 -0 0
    outer loop
      vertex -0.0546875 0.0546875 0.301292
      vertex -0.0546875 -0.0546875 0.285667
      vertex -0.0546875 -0.0546875 0.301292
    endloop
  endfacet
  facet normal 1 -0 0
    outer loop
      vertex 0.0546875 -0.0546875 0.301292
      vertex 0.0546875 0.0546875 0.285667
      vertex 0.0546875 0.0546875 0.301292
    endloop
  endfacet
  facet normal 1 0 0
    outer loop
      vertex 0.0546875 0.0546875 0.285667
      vertex 0.0546875 -0.0546875 0.301292
      vertex 0.0546875 -0.0546875 0.285667
    endloop
  endfacet
  facet normal 0 0 -1
    outer loop
      vertex -0.0546875 -0.0546875 0.285667
      vertex 0.0546875 0.0546875 0.285667
      vertex 0.0546875 -0.0546875 0.285667
    endloop
  endfacet
  facet normal -0 0 -1
    outer loop
      vertex 0.0546875 0.0546875 0.285667
      vertex -0.0546875 -0.0546875 0.285667
      vertex -0.0546875 0.0546875 0.285667
    endloop
  endfacet
  facet normal 0 1 -0
    outer loop
      vertex 0.0546875 0.0546875 0.285667
      vertex -0.0546875 0.0546875 0.301292
      vertex 0.0546875 0.0546875 0.301292
    endloop
  endfacet
  facet normal 0 1 0
    outer loop
      vertex -0.0546875 0.0546875 0.301292
      vertex 0.0546875 0.0546875 0.285667
      vertex -0.0546875 0.0546875 0.285667
    endloop
  endfacet
  facet normal 0 -1 0
    outer loop
      vertex -0.0546875 -0.0546875 0.285667
      vertex 0.0546875 -0.0546875 0.301292
      vertex -0.0546875 -0.0546875 0.301292
    endloop
  endfacet
  facet normal 0 -1 -0
    outer loop
      vertex 0.0546875 -0.0546875 0.301292
      vertex -0.0546875 -0.0546875 0.285667
      vertex 0.0546875 -0.0546875 0.285667
    endloop
  endfacet
endsolid OpenSCAD_Model
